<svg width="239" height="86" viewBox="0 0 239 86" fill="none" xmlns="http://www.w3.org/2000/svg">
<g filter="url(#filter0_b_0_784)">
<rect width="224" height="86" rx="15" fill="#002B45" fill-opacity="0.9"/>
<path d="M44.9199 30.5576C44.9199 32.6143 44.3984 34.2314 43.3555 35.4092C42.3184 36.5869 40.874 37.1758 39.0225 37.1758C37.1299 37.1758 35.668 36.5986 34.6367 35.4443C33.6113 34.2842 33.0986 32.6494 33.0986 30.54C33.0986 28.4482 33.6143 26.8281 34.6455 25.6797C35.6768 24.5254 37.1416 23.9482 39.04 23.9482C40.8857 23.9482 42.3271 24.5342 43.3643 25.7061C44.4014 26.8779 44.9199 28.4951 44.9199 30.5576ZM34.6807 30.5576C34.6807 32.2979 35.0498 33.6191 35.7881 34.5215C36.5322 35.418 37.6104 35.8662 39.0225 35.8662C40.4463 35.8662 41.5215 35.418 42.248 34.5215C42.9746 33.625 43.3379 32.3037 43.3379 30.5576C43.3379 28.8291 42.9746 27.5195 42.248 26.6289C41.5273 25.7324 40.458 25.2842 39.04 25.2842C37.6162 25.2842 36.5322 25.7354 35.7881 26.6377C35.0498 27.5342 34.6807 28.8408 34.6807 30.5576ZM53.375 28.6152H49.0332V37H47.5742V27.3672H53.375V28.6152ZM59.7734 37.1758C59.1465 37.1758 58.5723 37.0615 58.0508 36.833C57.5352 36.5986 57.1016 36.2412 56.75 35.7607H56.6445C56.7148 36.3232 56.75 36.8564 56.75 37.3604V41.3242H55.291V27.3672H56.4775L56.6797 28.6855H56.75C57.125 28.1582 57.5615 27.7773 58.0596 27.543C58.5576 27.3086 59.1289 27.1914 59.7734 27.1914C61.0508 27.1914 62.0352 27.6279 62.7266 28.501C63.4238 29.374 63.7725 30.5986 63.7725 32.1748C63.7725 33.7568 63.418 34.9873 62.709 35.8662C62.0059 36.7393 61.0273 37.1758 59.7734 37.1758ZM59.5625 28.4307C58.5781 28.4307 57.8662 28.7031 57.4268 29.248C56.9873 29.793 56.7617 30.6602 56.75 31.8496V32.1748C56.75 33.5283 56.9756 34.498 57.4268 35.084C57.8779 35.6641 58.6016 35.9541 59.5977 35.9541C60.4297 35.9541 61.0801 35.6172 61.5488 34.9434C62.0234 34.2695 62.2607 33.3408 62.2607 32.1572C62.2607 30.9561 62.0234 30.0361 61.5488 29.3975C61.0801 28.7529 60.418 28.4307 59.5625 28.4307ZM74.6445 32.1748C74.6445 33.7451 74.249 34.9727 73.458 35.8574C72.667 36.7363 71.5742 37.1758 70.1797 37.1758C69.3184 37.1758 68.5537 36.9736 67.8857 36.5693C67.2178 36.165 66.7021 35.585 66.3389 34.8291C65.9756 34.0732 65.7939 33.1885 65.7939 32.1748C65.7939 30.6045 66.1865 29.3828 66.9717 28.5098C67.7568 27.6309 68.8467 27.1914 70.2412 27.1914C71.5889 27.1914 72.6582 27.6396 73.4492 28.5361C74.2461 29.4326 74.6445 30.6455 74.6445 32.1748ZM67.3057 32.1748C67.3057 33.4053 67.5518 34.3428 68.0439 34.9873C68.5361 35.6318 69.2598 35.9541 70.2148 35.9541C71.1699 35.9541 71.8936 35.6348 72.3857 34.9961C72.8838 34.3516 73.1328 33.4111 73.1328 32.1748C73.1328 30.9502 72.8838 30.0215 72.3857 29.3887C71.8936 28.75 71.1641 28.4307 70.1973 28.4307C69.2422 28.4307 68.5215 28.7441 68.0352 29.3711C67.5488 29.998 67.3057 30.9326 67.3057 32.1748ZM82.2119 35.5938L82.4844 34.7764L82.8623 33.7393L85.4727 27.3848H87.3271V37H86.0352V29.0459L85.8594 29.5557L85.3496 30.9004L82.8623 37H81.6406L79.1533 30.8828C78.8428 30.0977 78.6289 29.4854 78.5117 29.0459V37H77.2109V27.3848H78.9951L81.5176 33.4932C81.7695 34.1377 82.001 34.8379 82.2119 35.5938ZM91.9062 27.3672V31.4014H97.3027V27.3672H98.7617V37H97.3027V32.6582H91.9062V37H90.4473V27.3672H91.9062ZM103.314 31.3486H105.942C107.167 31.3486 108.072 31.5771 108.658 32.0342C109.25 32.4854 109.546 33.1621 109.546 34.0645C109.546 35.0312 109.232 35.7637 108.605 36.2617C107.984 36.7539 107.067 37 105.854 37H101.855V27.3672H103.314V31.3486ZM112.622 37H111.163V27.3672H112.622V37ZM103.314 32.6055V35.7783H105.784C107.331 35.7783 108.104 35.2363 108.104 34.1523C108.104 33.6133 107.926 33.2207 107.568 32.9746C107.211 32.7285 106.602 32.6055 105.74 32.6055H103.314ZM117.096 27.3672V33.4756L117.034 35.0752L117.008 35.5762L122.22 27.3672H124.039V37H122.677V31.1113L122.703 29.9512L122.747 28.8086L117.544 37H115.725V27.3672H117.096ZM119.847 26.0928C118.763 26.0928 117.972 25.8848 117.474 25.4688C116.976 25.0469 116.697 24.3555 116.639 23.3945H118.01C118.062 24.0039 118.221 24.4287 118.484 24.6689C118.754 24.9092 119.22 25.0293 119.882 25.0293C120.485 25.0293 120.931 24.9004 121.218 24.6426C121.511 24.3848 121.689 23.9688 121.754 23.3945H123.134C123.063 24.3203 122.768 25.0029 122.246 25.4424C121.725 25.876 120.925 26.0928 119.847 26.0928ZM139.622 29.7842C139.622 30.4111 139.44 30.8887 139.077 31.2168C138.72 31.5391 138.216 31.7559 137.565 31.8672V31.9463C138.386 32.0576 138.983 32.2979 139.358 32.667C139.739 33.0361 139.93 33.5459 139.93 34.1963C139.93 35.0928 139.599 35.7842 138.937 36.2705C138.28 36.7568 137.319 37 136.054 37H131.809V27.3672H136.036C138.427 27.3672 139.622 28.1729 139.622 29.7842ZM138.471 34.0996C138.471 33.5781 138.271 33.2002 137.873 32.9658C137.48 32.7256 136.827 32.6055 135.913 32.6055H133.268V35.7783H135.948C137.63 35.7783 138.471 35.2188 138.471 34.0996ZM138.198 29.9248C138.198 29.4561 138.017 29.125 137.653 28.9316C137.296 28.7324 136.751 28.6328 136.019 28.6328H133.268V31.3486H135.737C136.64 31.3486 137.275 31.2373 137.645 31.0146C138.014 30.792 138.198 30.4287 138.198 29.9248ZM143.516 31.3486H146.144C147.368 31.3486 148.273 31.5771 148.859 32.0342C149.451 32.4854 149.747 33.1621 149.747 34.0645C149.747 35.0312 149.434 35.7637 148.807 36.2617C148.186 36.7539 147.269 37 146.056 37H142.057V27.3672H143.516V31.3486ZM152.823 37H151.364V27.3672H152.823V37ZM143.516 32.6055V35.7783H145.985C147.532 35.7783 148.306 35.2363 148.306 34.1523C148.306 33.6133 148.127 33.2207 147.77 32.9746C147.412 32.7285 146.803 32.6055 145.941 32.6055H143.516ZM155.425 31.2256C155.425 29.1162 155.735 27.4727 156.356 26.2949C156.978 25.1113 157.962 24.373 159.31 24.0801C160.985 23.7227 162.462 23.4326 163.739 23.21L164.012 24.4932C161.979 24.833 160.525 25.1025 159.652 25.3018C158.803 25.4951 158.164 25.9521 157.736 26.6729C157.314 27.3936 157.083 28.375 157.042 29.6172H157.147C157.511 29.125 157.979 28.7383 158.554 28.457C159.128 28.1758 159.729 28.0352 160.355 28.0352C161.539 28.0352 162.462 28.4189 163.124 29.1865C163.786 29.9541 164.117 31.0176 164.117 32.377C164.117 33.8828 163.733 35.0605 162.966 35.9102C162.198 36.7539 161.129 37.1758 159.758 37.1758C158.404 37.1758 157.344 36.6572 156.576 35.6201C155.809 34.583 155.425 33.1182 155.425 31.2256ZM159.89 35.9541C161.677 35.9541 162.57 34.8145 162.57 32.5352C162.57 30.3613 161.759 29.2744 160.136 29.2744C159.69 29.2744 159.26 29.3682 158.844 29.5557C158.434 29.7373 158.056 29.9805 157.71 30.2852C157.37 30.5898 157.106 30.9033 156.919 31.2256C156.919 32.7666 157.162 33.9414 157.648 34.75C158.135 35.5527 158.882 35.9541 159.89 35.9541ZM174.98 32.1748C174.98 33.7451 174.585 34.9727 173.794 35.8574C173.003 36.7363 171.91 37.1758 170.516 37.1758C169.654 37.1758 168.89 36.9736 168.222 36.5693C167.554 36.165 167.038 35.585 166.675 34.8291C166.312 34.0732 166.13 33.1885 166.13 32.1748C166.13 30.6045 166.522 29.3828 167.308 28.5098C168.093 27.6309 169.183 27.1914 170.577 27.1914C171.925 27.1914 172.994 27.6396 173.785 28.5361C174.582 29.4326 174.98 30.6455 174.98 32.1748ZM167.642 32.1748C167.642 33.4053 167.888 34.3428 168.38 34.9873C168.872 35.6318 169.596 35.9541 170.551 35.9541C171.506 35.9541 172.229 35.6348 172.722 34.9961C173.22 34.3516 173.469 33.4111 173.469 32.1748C173.469 30.9502 173.22 30.0215 172.722 29.3887C172.229 28.75 171.5 28.4307 170.533 28.4307C169.578 28.4307 168.857 28.7441 168.371 29.3711C167.885 29.998 167.642 30.9326 167.642 32.1748ZM182.029 37.1758C181.402 37.1758 180.828 37.0615 180.307 36.833C179.791 36.5986 179.357 36.2412 179.006 35.7607H178.9C178.971 36.3232 179.006 36.8564 179.006 37.3604V41.3242H177.547V27.3672H178.733L178.936 28.6855H179.006C179.381 28.1582 179.817 27.7773 180.315 27.543C180.813 27.3086 181.385 27.1914 182.029 27.1914C183.307 27.1914 184.291 27.6279 184.982 28.501C185.68 29.374 186.028 30.5986 186.028 32.1748C186.028 33.7568 185.674 34.9873 184.965 35.8662C184.262 36.7393 183.283 37.1758 182.029 37.1758ZM181.818 28.4307C180.834 28.4307 180.122 28.7031 179.683 29.248C179.243 29.793 179.018 30.6602 179.006 31.8496V32.1748C179.006 33.5283 179.231 34.498 179.683 35.084C180.134 35.6641 180.857 35.9541 181.854 35.9541C182.686 35.9541 183.336 35.6172 183.805 34.9434C184.279 34.2695 184.517 33.3408 184.517 32.1572C184.517 30.9561 184.279 30.0361 183.805 29.3975C183.336 28.7529 182.674 28.4307 181.818 28.4307ZM33.0459 56.2256C33.0459 54.1162 33.3564 52.4727 33.9775 51.2949C34.5986 50.1113 35.583 49.373 36.9307 49.0801C38.6064 48.7227 40.083 48.4326 41.3604 48.21L41.6328 49.4932C39.5996 49.833 38.1465 50.1025 37.2734 50.3018C36.4238 50.4951 35.7852 50.9521 35.3574 51.6729C34.9355 52.3936 34.7041 53.375 34.6631 54.6172H34.7686C35.1318 54.125 35.6006 53.7383 36.1748 53.457C36.749 53.1758 37.3496 53.0352 37.9766 53.0352C39.1602 53.0352 40.083 53.4189 40.7451 54.1865C41.4072 54.9541 41.7383 56.0176 41.7383 57.377C41.7383 58.8828 41.3545 60.0605 40.5869 60.9102C39.8193 61.7539 38.75 62.1758 37.3789 62.1758C36.0254 62.1758 34.9648 61.6572 34.1973 60.6201C33.4297 59.583 33.0459 58.1182 33.0459 56.2256ZM37.5107 60.9541C39.2979 60.9541 40.1914 59.8145 40.1914 57.5352C40.1914 55.3613 39.3799 54.2744 37.7568 54.2744C37.3115 54.2744 36.8809 54.3682 36.4648 54.5557C36.0547 54.7373 35.6768 54.9805 35.3311 55.2852C34.9912 55.5898 34.7275 55.9033 34.54 56.2256C34.54 57.7666 34.7832 58.9414 35.2695 59.75C35.7559 60.5527 36.5029 60.9541 37.5107 60.9541ZM45.7461 56.3486H48.374C49.5986 56.3486 50.5039 56.5771 51.0898 57.0342C51.6816 57.4854 51.9775 58.1621 51.9775 59.0645C51.9775 60.0312 51.6641 60.7637 51.0371 61.2617C50.416 61.7539 49.499 62 48.2861 62H44.2871V52.3672H45.7461V56.3486ZM55.0537 62H53.5947V52.3672H55.0537V62ZM45.7461 57.6055V60.7783H48.2158C49.7627 60.7783 50.5361 60.2363 50.5361 59.1523C50.5361 58.6133 50.3574 58.2207 50 57.9746C49.6426 57.7285 49.0332 57.6055 48.1719 57.6055H45.7461ZM64.6514 53.6152H61.5225V62H60.0635V53.6152H56.9697V52.3672H64.6514V53.6152ZM74.873 57.1748C74.873 58.7451 74.4775 59.9727 73.6865 60.8574C72.8955 61.7363 71.8027 62.1758 70.4082 62.1758C69.5469 62.1758 68.7822 61.9736 68.1143 61.5693C67.4463 61.165 66.9307 60.585 66.5674 59.8291C66.2041 59.0732 66.0225 58.1885 66.0225 57.1748C66.0225 55.6045 66.415 54.3828 67.2002 53.5098C67.9854 52.6309 69.0752 52.1914 70.4697 52.1914C71.8174 52.1914 72.8867 52.6396 73.6777 53.5361C74.4746 54.4326 74.873 55.6455 74.873 57.1748ZM67.5342 57.1748C67.5342 58.4053 67.7803 59.3428 68.2725 59.9873C68.7646 60.6318 69.4883 60.9541 70.4434 60.9541C71.3984 60.9541 72.1221 60.6348 72.6143 59.9961C73.1123 59.3516 73.3613 58.4111 73.3613 57.1748C73.3613 55.9502 73.1123 55.0215 72.6143 54.3887C72.1221 53.75 71.3926 53.4307 70.4258 53.4307C69.4707 53.4307 68.75 53.7441 68.2637 54.3711C67.7773 54.998 67.5342 55.9326 67.5342 57.1748ZM85.2529 54.7842C85.2529 55.4111 85.0713 55.8887 84.708 56.2168C84.3506 56.5391 83.8467 56.7559 83.1963 56.8672V56.9463C84.0166 57.0576 84.6143 57.2979 84.9893 57.667C85.3701 58.0361 85.5605 58.5459 85.5605 59.1963C85.5605 60.0928 85.2295 60.7842 84.5674 61.2705C83.9111 61.7568 82.9502 62 81.6846 62H77.4395V52.3672H81.667C84.0576 52.3672 85.2529 53.1729 85.2529 54.7842ZM84.1016 59.0996C84.1016 58.5781 83.9023 58.2002 83.5039 57.9658C83.1113 57.7256 82.458 57.6055 81.5439 57.6055H78.8984V60.7783H81.5791C83.2607 60.7783 84.1016 60.2188 84.1016 59.0996ZM83.8291 54.9248C83.8291 54.4561 83.6475 54.125 83.2842 53.9316C82.9268 53.7324 82.3818 53.6328 81.6494 53.6328H78.8984V56.3486H81.3682C82.2705 56.3486 82.9062 56.2373 83.2754 56.0146C83.6445 55.792 83.8291 55.4287 83.8291 54.9248ZM96.002 57.1748C96.002 58.7451 95.6064 59.9727 94.8154 60.8574C94.0244 61.7363 92.9316 62.1758 91.5371 62.1758C90.6758 62.1758 89.9111 61.9736 89.2432 61.5693C88.5752 61.165 88.0596 60.585 87.6963 59.8291C87.333 59.0732 87.1514 58.1885 87.1514 57.1748C87.1514 55.6045 87.5439 54.3828 88.3291 53.5098C89.1143 52.6309 90.2041 52.1914 91.5986 52.1914C92.9463 52.1914 94.0156 52.6396 94.8066 53.5361C95.6035 54.4326 96.002 55.6455 96.002 57.1748ZM88.6631 57.1748C88.6631 58.4053 88.9092 59.3428 89.4014 59.9873C89.8936 60.6318 90.6172 60.9541 91.5723 60.9541C92.5273 60.9541 93.251 60.6348 93.7432 59.9961C94.2412 59.3516 94.4902 58.4111 94.4902 57.1748C94.4902 55.9502 94.2412 55.0215 93.7432 54.3887C93.251 53.75 92.5215 53.4307 91.5547 53.4307C90.5996 53.4307 89.8789 53.7441 89.3926 54.3711C88.9062 54.998 88.6631 55.9326 88.6631 57.1748ZM99.9395 52.3672V58.4756L99.8779 60.0752L99.8516 60.5762L105.063 52.3672H106.883V62H105.521V56.1113L105.547 54.9512L105.591 53.8086L100.388 62H98.5684V52.3672H99.9395ZM102.69 51.0928C101.606 51.0928 100.815 50.8848 100.317 50.4688C99.8193 50.0469 99.541 49.3555 99.4824 48.3945H100.854C100.906 49.0039 101.064 49.4287 101.328 49.6689C101.598 49.9092 102.063 50.0293 102.726 50.0293C103.329 50.0293 103.774 49.9004 104.062 49.6426C104.354 49.3848 104.533 48.9688 104.598 48.3945H105.978C105.907 49.3203 105.611 50.0029 105.09 50.4424C104.568 50.876 103.769 51.0928 102.69 51.0928ZM121.147 53.6152H118.019V62H116.56V53.6152H113.466V52.3672H121.147V53.6152ZM127.124 62.1758C125.7 62.1758 124.575 61.7422 123.749 60.875C122.929 60.0078 122.519 58.8037 122.519 57.2627C122.519 55.71 122.899 54.4766 123.661 53.5625C124.429 52.6484 125.457 52.1914 126.746 52.1914C127.953 52.1914 128.908 52.5898 129.611 53.3867C130.314 54.1777 130.666 55.2236 130.666 56.5244V57.4473H124.03C124.06 58.5781 124.344 59.4365 124.883 60.0225C125.428 60.6084 126.192 60.9014 127.177 60.9014C128.214 60.9014 129.239 60.6846 130.253 60.251V61.5518C129.737 61.7744 129.248 61.9326 128.785 62.0264C128.328 62.126 127.774 62.1758 127.124 62.1758ZM126.729 53.4131C125.955 53.4131 125.337 53.665 124.874 54.1689C124.417 54.6729 124.147 55.3701 124.065 56.2607H129.102C129.102 55.3408 128.896 54.6377 128.486 54.1514C128.076 53.6592 127.49 53.4131 126.729 53.4131ZM135.482 57.0693L132.134 52.3672H133.795L136.335 56.0586L138.866 52.3672H140.51L137.161 57.0693L140.686 62H139.033L136.335 58.0977L133.61 62H131.958L135.482 57.0693ZM144.061 52.3672V56.4014H149.457V52.3672H150.916V62H149.457V57.6582H144.061V62H142.602V52.3672H144.061ZM155.381 52.3672V58.4756L155.319 60.0752L155.293 60.5762L160.505 52.3672H162.324V62H160.962V56.1113L160.988 54.9512L161.032 53.8086L155.829 62H154.01V52.3672H155.381ZM171.034 52.3672H172.634L168.477 57.0166L172.977 62H171.271L166.877 57.1221V62H165.418V52.3672H166.877V57.0518L171.034 52.3672ZM176.141 52.3672V58.4756L176.079 60.0752L176.053 60.5762L181.265 52.3672H183.084V62H181.722V56.1113L181.748 54.9512L181.792 53.8086L176.589 62H174.77V52.3672H176.141Z" fill="white"/>
</g>
<g filter="url(#filter1_b_0_784)">
<path d="M239 43.5C239 52.0604 232.06 59 223.5 59C214.94 59 208 52.0604 208 43.5C208 34.9396 214.94 28 223.5 28C232.06 28 239 34.9396 239 43.5Z" fill="#FBF6EF"/>
</g>
<g filter="url(#filter2_d_0_784)">
<circle cx="223.5" cy="43.5" r="9.5" fill="white" fill-opacity="0.68" shape-rendering="crispEdges"/>
</g>
<defs>
<filter id="filter0_b_0_784" x="-4" y="-4" width="232" height="94" filterUnits="userSpaceOnUse" color-interpolation-filters="sRGB">
<feFlood flood-opacity="0" result="BackgroundImageFix"/>
<feGaussianBlur in="BackgroundImageFix" stdDeviation="2"/>
<feComposite in2="SourceAlpha" operator="in" result="effect1_backgroundBlur_0_784"/>
<feBlend mode="normal" in="SourceGraphic" in2="effect1_backgroundBlur_0_784" result="shape"/>
</filter>
<filter id="filter1_b_0_784" x="204" y="24" width="39" height="39" filterUnits="userSpaceOnUse" color-interpolation-filters="sRGB">
<feFlood flood-opacity="0" result="BackgroundImageFix"/>
<feGaussianBlur in="BackgroundImageFix" stdDeviation="2"/>
<feComposite in2="SourceAlpha" operator="in" result="effect1_backgroundBlur_0_784"/>
<feBlend mode="normal" in="SourceGraphic" in2="effect1_backgroundBlur_0_784" result="shape"/>
</filter>
<filter id="filter2_d_0_784" x="210" y="34" width="27" height="27" filterUnits="userSpaceOnUse" color-interpolation-filters="sRGB">
<feFlood flood-opacity="0" result="BackgroundImageFix"/>
<feColorMatrix in="SourceAlpha" type="matrix" values="0 0 0 0 0 0 0 0 0 0 0 0 0 0 0 0 0 0 127 0" result="hardAlpha"/>
<feOffset dy="4"/>
<feGaussianBlur stdDeviation="2"/>
<feComposite in2="hardAlpha" operator="out"/>
<feColorMatrix type="matrix" values="0 0 0 0 0 0 0 0 0 0 0 0 0 0 0 0 0 0 0.25 0"/>
<feBlend mode="normal" in2="BackgroundImageFix" result="effect1_dropShadow_0_784"/>
<feBlend mode="normal" in="SourceGraphic" in2="effect1_dropShadow_0_784" result="shape"/>
</filter>
</defs>
</svg>
