<svg width="281" height="86" viewBox="0 0 281 86" fill="none" xmlns="http://www.w3.org/2000/svg">
<g filter="url(#filter0_b_0_767)">
<rect width="266" height="86" rx="15" fill="#002B45" fill-opacity="0.9"/>
<path d="M33.7842 24.1504H35.1816V31.2959C35.1816 32.6143 35.1406 33.8066 35.0586 34.873H35.1289L42.3359 24.1504H43.9707V37H42.5645V29.9248C42.5645 28.7471 42.6143 27.5107 42.7139 26.2158H42.6348L35.4189 37H33.7842V24.1504ZM49.1123 31.3662C50.9346 31.3662 51.8457 30.8623 51.8457 29.8545C51.8457 28.9053 51.1074 28.4307 49.6309 28.4307C49.1797 28.4307 48.7695 28.4717 48.4004 28.5537C48.0312 28.6357 47.5479 28.7998 46.9502 29.0459L46.4316 27.8594C47.4277 27.4141 48.5146 27.1914 49.6924 27.1914C50.7998 27.1914 51.6729 27.4199 52.3115 27.877C52.9502 28.3281 53.2695 28.9463 53.2695 29.7314C53.2695 30.8096 52.6689 31.5156 51.4678 31.8496V31.9199C52.2061 32.1367 52.7451 32.4473 53.085 32.8516C53.4248 33.25 53.5947 33.751 53.5947 34.3545C53.5947 35.2451 53.2344 35.9395 52.5137 36.4375C51.7988 36.9297 50.8086 37.1758 49.543 37.1758C48.1543 37.1758 47.082 36.9678 46.3262 36.5518V35.2158C47.3984 35.7197 48.4824 35.9717 49.5781 35.9717C50.4219 35.9717 51.0576 35.8281 51.4854 35.541C51.9189 35.248 52.1357 34.8291 52.1357 34.2842C52.1357 33.165 51.2246 32.6055 49.4023 32.6055H48.0664V31.3662H49.1123ZM57.4355 31.3486H60.0635C61.2881 31.3486 62.1934 31.5771 62.7793 32.0342C63.3711 32.4854 63.667 33.1621 63.667 34.0645C63.667 35.0312 63.3535 35.7637 62.7266 36.2617C62.1055 36.7539 61.1885 37 59.9756 37H55.9766V27.3672H57.4355V31.3486ZM66.7432 37H65.2842V27.3672H66.7432V37ZM57.4355 32.6055V35.7783H59.9053C61.4521 35.7783 62.2256 35.2363 62.2256 34.1523C62.2256 33.6133 62.0469 33.2207 61.6895 32.9746C61.332 32.7285 60.7227 32.6055 59.8613 32.6055H57.4355ZM73.6953 37.1758C72.3008 37.1758 71.2197 36.748 70.4521 35.8926C69.6904 35.0312 69.3096 33.8154 69.3096 32.2451C69.3096 30.6338 69.6963 29.3887 70.4697 28.5098C71.249 27.6309 72.3564 27.1914 73.792 27.1914C74.2549 27.1914 74.7178 27.2412 75.1807 27.3408C75.6436 27.4404 76.0068 27.5576 76.2705 27.6924L75.8223 28.9316C75.5 28.8027 75.1484 28.6973 74.7676 28.6152C74.3867 28.5273 74.0498 28.4834 73.7568 28.4834C71.7998 28.4834 70.8213 29.7314 70.8213 32.2275C70.8213 33.4111 71.0586 34.3193 71.5332 34.9521C72.0137 35.585 72.7227 35.9014 73.6602 35.9014C74.4629 35.9014 75.2861 35.7285 76.1299 35.3828V36.6748C75.4854 37.0088 74.6738 37.1758 73.6953 37.1758ZM84.04 27.3672H85.6396L81.4824 32.0166L85.9824 37H84.2773L79.8828 32.1221V37H78.4238V27.3672H79.8828V32.0518L84.04 27.3672ZM93.6992 37L93.4092 35.6289H93.3389C92.8584 36.2324 92.3779 36.6426 91.8975 36.8594C91.4229 37.0703 90.8281 37.1758 90.1133 37.1758C89.1582 37.1758 88.4082 36.9297 87.8633 36.4375C87.3242 35.9453 87.0547 35.2451 87.0547 34.3369C87.0547 32.3916 88.6104 31.3721 91.7217 31.2783L93.3564 31.2256V30.6279C93.3564 29.8721 93.1924 29.3154 92.8643 28.958C92.542 28.5947 92.0234 28.4131 91.3086 28.4131C90.5059 28.4131 89.5977 28.6592 88.584 29.1514L88.1357 28.0352C88.6104 27.7773 89.1289 27.5752 89.6914 27.4287C90.2598 27.2822 90.8281 27.209 91.3965 27.209C92.5449 27.209 93.3945 27.4639 93.9453 27.9736C94.502 28.4834 94.7803 29.3008 94.7803 30.4258V37H93.6992ZM90.4033 35.9717C91.3115 35.9717 92.0234 35.7227 92.5391 35.2246C93.0605 34.7266 93.3213 34.0293 93.3213 33.1328V32.2627L91.8623 32.3242C90.7021 32.3652 89.8643 32.5469 89.3486 32.8691C88.8389 33.1855 88.584 33.6807 88.584 34.3545C88.584 34.8818 88.7422 35.2832 89.0586 35.5586C89.3809 35.834 89.8291 35.9717 90.4033 35.9717ZM99.2539 27.3672V31.4014H104.65V27.3672H106.109V37H104.65V32.6582H99.2539V37H97.7949V27.3672H99.2539ZM110.662 27.3672V31.4014H116.059V27.3672H117.518V37H116.059V32.6582H110.662V37H109.203V27.3672H110.662ZM122.07 31.3486H124.698C125.923 31.3486 126.828 31.5771 127.414 32.0342C128.006 32.4854 128.302 33.1621 128.302 34.0645C128.302 35.0312 127.988 35.7637 127.361 36.2617C126.74 36.7539 125.823 37 124.61 37H120.611V27.3672H122.07V31.3486ZM131.378 37H129.919V27.3672H131.378V37ZM122.07 32.6055V35.7783H124.54C126.087 35.7783 126.86 35.2363 126.86 34.1523C126.86 33.6133 126.682 33.2207 126.324 32.9746C125.967 32.7285 125.357 32.6055 124.496 32.6055H122.07ZM135.852 27.3672V33.4756L135.79 35.0752L135.764 35.5762L140.976 27.3672H142.795V37H141.433V31.1113L141.459 29.9512L141.503 28.8086L136.3 37H134.48V27.3672H135.852ZM138.603 26.0928C137.519 26.0928 136.728 25.8848 136.229 25.4688C135.731 25.0469 135.453 24.3555 135.395 23.3945H136.766C136.818 24.0039 136.977 24.4287 137.24 24.6689C137.51 24.9092 137.976 25.0293 138.638 25.0293C139.241 25.0293 139.687 24.9004 139.974 24.6426C140.267 24.3848 140.445 23.9688 140.51 23.3945H141.89C141.819 24.3203 141.523 25.0029 141.002 25.4424C140.48 25.876 139.681 26.0928 138.603 26.0928ZM156.365 28.6152H152.023V37H150.564V27.3672H156.365V28.6152ZM164.205 37L163.915 35.6289H163.845C163.364 36.2324 162.884 36.6426 162.403 36.8594C161.929 37.0703 161.334 37.1758 160.619 37.1758C159.664 37.1758 158.914 36.9297 158.369 36.4375C157.83 35.9453 157.561 35.2451 157.561 34.3369C157.561 32.3916 159.116 31.3721 162.228 31.2783L163.862 31.2256V30.6279C163.862 29.8721 163.698 29.3154 163.37 28.958C163.048 28.5947 162.529 28.4131 161.814 28.4131C161.012 28.4131 160.104 28.6592 159.09 29.1514L158.642 28.0352C159.116 27.7773 159.635 27.5752 160.197 27.4287C160.766 27.2822 161.334 27.209 161.902 27.209C163.051 27.209 163.9 27.4639 164.451 27.9736C165.008 28.4834 165.286 29.3008 165.286 30.4258V37H164.205ZM160.909 35.9717C161.817 35.9717 162.529 35.7227 163.045 35.2246C163.566 34.7266 163.827 34.0293 163.827 33.1328V32.2627L162.368 32.3242C161.208 32.3652 160.37 32.5469 159.854 32.8691C159.345 33.1855 159.09 33.6807 159.09 34.3545C159.09 34.8818 159.248 35.2832 159.564 35.5586C159.887 35.834 160.335 35.9717 160.909 35.9717ZM172.783 37.1758C172.156 37.1758 171.582 37.0615 171.061 36.833C170.545 36.5986 170.111 36.2412 169.76 35.7607H169.654C169.725 36.3232 169.76 36.8564 169.76 37.3604V41.3242H168.301V27.3672H169.487L169.689 28.6855H169.76C170.135 28.1582 170.571 27.7773 171.069 27.543C171.567 27.3086 172.139 27.1914 172.783 27.1914C174.061 27.1914 175.045 27.6279 175.736 28.501C176.434 29.374 176.782 30.5986 176.782 32.1748C176.782 33.7568 176.428 34.9873 175.719 35.8662C175.016 36.7393 174.037 37.1758 172.783 37.1758ZM172.572 28.4307C171.588 28.4307 170.876 28.7031 170.437 29.248C169.997 29.793 169.771 30.6602 169.76 31.8496V32.1748C169.76 33.5283 169.985 34.498 170.437 35.084C170.888 35.6641 171.611 35.9541 172.607 35.9541C173.439 35.9541 174.09 35.6172 174.559 34.9434C175.033 34.2695 175.271 33.3408 175.271 32.1572C175.271 30.9561 175.033 30.0361 174.559 29.3975C174.09 28.7529 173.428 28.4307 172.572 28.4307ZM180.799 27.3672V31.4014H186.195V27.3672H187.654V37H186.195V32.6582H180.799V37H179.34V27.3672H180.799ZM192.119 27.3672V33.4756L192.058 35.0752L192.031 35.5762L197.243 27.3672H199.062V37H197.7V31.1113L197.727 29.9512L197.771 28.8086L192.567 37H190.748V27.3672H192.119ZM208.651 28.6152H205.522V37H204.063V28.6152H200.97V27.3672H208.651V28.6152ZM209.029 27.3672H210.594L212.703 32.8604C213.166 34.1143 213.453 35.0195 213.564 35.5762H213.635C213.711 35.2773 213.869 34.7676 214.109 34.0469C214.355 33.3203 215.152 31.0938 216.5 27.3672H218.064L213.925 38.3359C213.515 39.4199 213.034 40.1875 212.483 40.6387C211.938 41.0957 211.268 41.3242 210.471 41.3242C210.025 41.3242 209.586 41.2744 209.152 41.1748V40.0059C209.475 40.0762 209.835 40.1113 210.233 40.1113C211.235 40.1113 211.95 39.5488 212.378 38.4238L212.914 37.0527L209.029 27.3672ZM224.111 37.1758C223.484 37.1758 222.91 37.0615 222.389 36.833C221.873 36.5986 221.439 36.2412 221.088 35.7607H220.982C221.053 36.3232 221.088 36.8564 221.088 37.3604V41.3242H219.629V27.3672H220.815L221.018 28.6855H221.088C221.463 28.1582 221.899 27.7773 222.397 27.543C222.896 27.3086 223.467 27.1914 224.111 27.1914C225.389 27.1914 226.373 27.6279 227.064 28.501C227.762 29.374 228.11 30.5986 228.11 32.1748C228.11 33.7568 227.756 34.9873 227.047 35.8662C226.344 36.7393 225.365 37.1758 224.111 37.1758ZM223.9 28.4307C222.916 28.4307 222.204 28.7031 221.765 29.248C221.325 29.793 221.1 30.6602 221.088 31.8496V32.1748C221.088 33.5283 221.313 34.498 221.765 35.084C222.216 35.6641 222.939 35.9541 223.936 35.9541C224.768 35.9541 225.418 35.6172 225.887 34.9434C226.361 34.2695 226.599 33.3408 226.599 32.1572C226.599 30.9561 226.361 30.0361 225.887 29.3975C225.418 28.7529 224.756 28.4307 223.9 28.4307ZM40.7275 62H39.251V53.6152H36.3594C36.2012 55.7012 35.9814 57.3564 35.7002 58.5811C35.4189 59.8057 35.0527 60.7021 34.6016 61.2705C34.1562 61.8389 33.5879 62.123 32.8965 62.123C32.5801 62.123 32.3281 62.0879 32.1406 62.0176V60.9365C32.2695 60.9717 32.416 60.9893 32.5801 60.9893C33.2539 60.9893 33.79 60.2773 34.1885 58.8535C34.5869 57.4297 34.8887 55.2676 35.0938 52.3672H40.7275V62ZM56.2314 57.1748C56.2314 58.751 55.8535 59.9785 55.0977 60.8574C54.3477 61.7363 53.3164 62.1758 52.0039 62.1758C50.7559 62.1758 49.7656 61.7861 49.0332 61.0068C48.3008 60.2217 47.8936 59.1055 47.8115 57.6582H45.2891V62H43.8301V52.3672H45.2891V56.4014H47.8291C47.9463 55.0654 48.374 54.0312 49.1123 53.2988C49.8506 52.5605 50.8262 52.1914 52.0391 52.1914C53.3281 52.1914 54.3477 52.6396 55.0977 53.5361C55.8535 54.4268 56.2314 55.6396 56.2314 57.1748ZM49.3232 57.1748C49.3232 58.4111 49.5371 59.3516 49.9648 59.9961C50.3926 60.6348 51.0781 60.9541 52.0215 60.9541C52.9473 60.9541 53.627 60.6436 54.0605 60.0225C54.5 59.3955 54.7197 58.4463 54.7197 57.1748C54.7197 55.9443 54.5059 55.0127 54.0781 54.3799C53.6504 53.7471 52.9648 53.4307 52.0215 53.4307C51.0781 53.4307 50.3926 53.7471 49.9648 54.3799C49.5371 55.0127 49.3232 55.9443 49.3232 57.1748ZM58.2881 56.2256C58.2881 54.1162 58.5986 52.4727 59.2197 51.2949C59.8408 50.1113 60.8252 49.373 62.1729 49.0801C63.8486 48.7227 65.3252 48.4326 66.6025 48.21L66.875 49.4932C64.8418 49.833 63.3887 50.1025 62.5156 50.3018C61.666 50.4951 61.0273 50.9521 60.5996 51.6729C60.1777 52.3936 59.9463 53.375 59.9053 54.6172H60.0107C60.374 54.125 60.8428 53.7383 61.417 53.457C61.9912 53.1758 62.5918 53.0352 63.2188 53.0352C64.4023 53.0352 65.3252 53.4189 65.9873 54.1865C66.6494 54.9541 66.9805 56.0176 66.9805 57.377C66.9805 58.8828 66.5967 60.0605 65.8291 60.9102C65.0615 61.7539 63.9922 62.1758 62.6211 62.1758C61.2676 62.1758 60.207 61.6572 59.4395 60.6201C58.6719 59.583 58.2881 58.1182 58.2881 56.2256ZM62.7529 60.9541C64.54 60.9541 65.4336 59.8145 65.4336 57.5352C65.4336 55.3613 64.6221 54.2744 62.999 54.2744C62.5537 54.2744 62.123 54.3682 61.707 54.5557C61.2969 54.7373 60.9189 54.9805 60.5732 55.2852C60.2334 55.5898 59.9697 55.9033 59.7822 56.2256C59.7822 57.7666 60.0254 58.9414 60.5117 59.75C60.998 60.5527 61.7451 60.9541 62.7529 60.9541ZM77.8438 57.1748C77.8438 58.7451 77.4482 59.9727 76.6572 60.8574C75.8662 61.7363 74.7734 62.1758 73.3789 62.1758C72.5176 62.1758 71.7529 61.9736 71.085 61.5693C70.417 61.165 69.9014 60.585 69.5381 59.8291C69.1748 59.0732 68.9932 58.1885 68.9932 57.1748C68.9932 55.6045 69.3857 54.3828 70.1709 53.5098C70.9561 52.6309 72.0459 52.1914 73.4404 52.1914C74.7881 52.1914 75.8574 52.6396 76.6484 53.5361C77.4453 54.4326 77.8438 55.6455 77.8438 57.1748ZM70.5049 57.1748C70.5049 58.4053 70.751 59.3428 71.2432 59.9873C71.7354 60.6318 72.459 60.9541 73.4141 60.9541C74.3691 60.9541 75.0928 60.6348 75.585 59.9961C76.083 59.3516 76.332 58.4111 76.332 57.1748C76.332 55.9502 76.083 55.0215 75.585 54.3887C75.0928 53.75 74.3633 53.4307 73.3965 53.4307C72.4414 53.4307 71.7207 53.7441 71.2344 54.3711C70.748 54.998 70.5049 55.9326 70.5049 57.1748ZM86.2109 53.6152H81.8691V62H80.4102V52.3672H86.2109V53.6152ZM96.4414 57.1748C96.4414 58.7451 96.0459 59.9727 95.2549 60.8574C94.4639 61.7363 93.3711 62.1758 91.9766 62.1758C91.1152 62.1758 90.3506 61.9736 89.6826 61.5693C89.0146 61.165 88.499 60.585 88.1357 59.8291C87.7725 59.0732 87.5908 58.1885 87.5908 57.1748C87.5908 55.6045 87.9834 54.3828 88.7686 53.5098C89.5537 52.6309 90.6436 52.1914 92.0381 52.1914C93.3857 52.1914 94.4551 52.6396 95.2461 53.5361C96.043 54.4326 96.4414 55.6455 96.4414 57.1748ZM89.1025 57.1748C89.1025 58.4053 89.3486 59.3428 89.8408 59.9873C90.333 60.6318 91.0566 60.9541 92.0117 60.9541C92.9668 60.9541 93.6904 60.6348 94.1826 59.9961C94.6807 59.3516 94.9297 58.4111 94.9297 57.1748C94.9297 55.9502 94.6807 55.0215 94.1826 54.3887C93.6904 53.75 92.9609 53.4307 91.9941 53.4307C91.0391 53.4307 90.3184 53.7441 89.832 54.3711C89.3457 54.998 89.1025 55.9326 89.1025 57.1748ZM108.166 62.1758C107.539 62.1758 106.965 62.0615 106.443 61.833C105.928 61.5986 105.494 61.2412 105.143 60.7607H105.037C105.107 61.3232 105.143 61.8564 105.143 62.3604V66.3242H103.684V52.3672H104.87L105.072 53.6855H105.143C105.518 53.1582 105.954 52.7773 106.452 52.543C106.95 52.3086 107.521 52.1914 108.166 52.1914C109.443 52.1914 110.428 52.6279 111.119 53.501C111.816 54.374 112.165 55.5986 112.165 57.1748C112.165 58.7568 111.811 59.9873 111.102 60.8662C110.398 61.7393 109.42 62.1758 108.166 62.1758ZM107.955 53.4307C106.971 53.4307 106.259 53.7031 105.819 54.248C105.38 54.793 105.154 55.6602 105.143 56.8496V57.1748C105.143 58.5283 105.368 59.498 105.819 60.084C106.271 60.6641 106.994 60.9541 107.99 60.9541C108.822 60.9541 109.473 60.6172 109.941 59.9434C110.416 59.2695 110.653 58.3408 110.653 57.1572C110.653 55.9561 110.416 55.0361 109.941 54.3975C109.473 53.7529 108.811 53.4307 107.955 53.4307ZM120.646 62L120.356 60.6289H120.286C119.806 61.2324 119.325 61.6426 118.845 61.8594C118.37 62.0703 117.775 62.1758 117.061 62.1758C116.105 62.1758 115.355 61.9297 114.811 61.4375C114.271 60.9453 114.002 60.2451 114.002 59.3369C114.002 57.3916 115.558 56.3721 118.669 56.2783L120.304 56.2256V55.6279C120.304 54.8721 120.14 54.3154 119.812 53.958C119.489 53.5947 118.971 53.4131 118.256 53.4131C117.453 53.4131 116.545 53.6592 115.531 54.1514L115.083 53.0352C115.558 52.7773 116.076 52.5752 116.639 52.4287C117.207 52.2822 117.775 52.209 118.344 52.209C119.492 52.209 120.342 52.4639 120.893 52.9736C121.449 53.4834 121.728 54.3008 121.728 55.4258V62H120.646ZM117.351 60.9717C118.259 60.9717 118.971 60.7227 119.486 60.2246C120.008 59.7266 120.269 59.0293 120.269 58.1328V57.2627L118.81 57.3242C117.649 57.3652 116.812 57.5469 116.296 57.8691C115.786 58.1855 115.531 58.6807 115.531 59.3545C115.531 59.8818 115.689 60.2832 116.006 60.5586C116.328 60.834 116.776 60.9717 117.351 60.9717ZM126.579 56.3662C128.401 56.3662 129.312 55.8623 129.312 54.8545C129.312 53.9053 128.574 53.4307 127.098 53.4307C126.646 53.4307 126.236 53.4717 125.867 53.5537C125.498 53.6357 125.015 53.7998 124.417 54.0459L123.898 52.8594C124.895 52.4141 125.981 52.1914 127.159 52.1914C128.267 52.1914 129.14 52.4199 129.778 52.877C130.417 53.3281 130.736 53.9463 130.736 54.7314C130.736 55.8096 130.136 56.5156 128.935 56.8496V56.9199C129.673 57.1367 130.212 57.4473 130.552 57.8516C130.892 58.25 131.062 58.751 131.062 59.3545C131.062 60.2451 130.701 60.9395 129.98 61.4375C129.266 61.9297 128.275 62.1758 127.01 62.1758C125.621 62.1758 124.549 61.9678 123.793 61.5518V60.2158C124.865 60.7197 125.949 60.9717 127.045 60.9717C127.889 60.9717 128.524 60.8281 128.952 60.541C129.386 60.248 129.603 59.8291 129.603 59.2842C129.603 58.165 128.691 57.6055 126.869 57.6055H125.533V56.3662H126.579ZM138.444 60.5938L138.717 59.7764L139.095 58.7393L141.705 52.3848H143.56V62H142.268V54.0459L142.092 54.5557L141.582 55.9004L139.095 62H137.873L135.386 55.8828C135.075 55.0977 134.861 54.4854 134.744 54.0459V62H133.443V52.3848H135.228L137.75 58.4932C138.002 59.1377 138.233 59.8379 138.444 60.5938ZM150.749 62.1758C149.325 62.1758 148.2 61.7422 147.374 60.875C146.554 60.0078 146.144 58.8037 146.144 57.2627C146.144 55.71 146.524 54.4766 147.286 53.5625C148.054 52.6484 149.082 52.1914 150.371 52.1914C151.578 52.1914 152.533 52.5898 153.236 53.3867C153.939 54.1777 154.291 55.2236 154.291 56.5244V57.4473H147.655C147.685 58.5781 147.969 59.4365 148.508 60.0225C149.053 60.6084 149.817 60.9014 150.802 60.9014C151.839 60.9014 152.864 60.6846 153.878 60.251V61.5518C153.362 61.7744 152.873 61.9326 152.41 62.0264C151.953 62.126 151.399 62.1758 150.749 62.1758ZM150.354 53.4131C149.58 53.4131 148.962 53.665 148.499 54.1689C148.042 54.6729 147.772 55.3701 147.69 56.2607H152.727C152.727 55.3408 152.521 54.6377 152.111 54.1514C151.701 53.6592 151.115 53.4131 150.354 53.4131ZM161.27 62.1758C160.643 62.1758 160.068 62.0615 159.547 61.833C159.031 61.5986 158.598 61.2412 158.246 60.7607H158.141C158.211 61.3232 158.246 61.8564 158.246 62.3604V66.3242H156.787V52.3672H157.974L158.176 53.6855H158.246C158.621 53.1582 159.058 52.7773 159.556 52.543C160.054 52.3086 160.625 52.1914 161.27 52.1914C162.547 52.1914 163.531 52.6279 164.223 53.501C164.92 54.374 165.269 55.5986 165.269 57.1748C165.269 58.7568 164.914 59.9873 164.205 60.8662C163.502 61.7393 162.523 62.1758 161.27 62.1758ZM161.059 53.4307C160.074 53.4307 159.362 53.7031 158.923 54.248C158.483 54.793 158.258 55.6602 158.246 56.8496V57.1748C158.246 58.5283 158.472 59.498 158.923 60.084C159.374 60.6641 160.098 60.9541 161.094 60.9541C161.926 60.9541 162.576 60.6172 163.045 59.9434C163.52 59.2695 163.757 58.3408 163.757 57.1572C163.757 55.9561 163.52 55.0361 163.045 54.3975C162.576 53.7529 161.914 53.4307 161.059 53.4307ZM173.75 62L173.46 60.6289H173.39C172.909 61.2324 172.429 61.6426 171.948 61.8594C171.474 62.0703 170.879 62.1758 170.164 62.1758C169.209 62.1758 168.459 61.9297 167.914 61.4375C167.375 60.9453 167.105 60.2451 167.105 59.3369C167.105 57.3916 168.661 56.3721 171.772 56.2783L173.407 56.2256V55.6279C173.407 54.8721 173.243 54.3154 172.915 53.958C172.593 53.5947 172.074 53.4131 171.359 53.4131C170.557 53.4131 169.648 53.6592 168.635 54.1514L168.187 53.0352C168.661 52.7773 169.18 52.5752 169.742 52.4287C170.311 52.2822 170.879 52.209 171.447 52.209C172.596 52.209 173.445 52.4639 173.996 52.9736C174.553 53.4834 174.831 54.3008 174.831 55.4258V62H173.75ZM170.454 60.9717C171.362 60.9717 172.074 60.7227 172.59 60.2246C173.111 59.7266 173.372 59.0293 173.372 58.1328V57.2627L171.913 57.3242C170.753 57.3652 169.915 57.5469 169.399 57.8691C168.89 58.1855 168.635 58.6807 168.635 59.3545C168.635 59.8818 168.793 60.2832 169.109 60.5586C169.432 60.834 169.88 60.9717 170.454 60.9717Z" fill="white"/>
</g>
<g filter="url(#filter1_b_0_767)">
<path d="M281 43.5C281 52.0604 274.06 59 265.5 59C256.94 59 250 52.0604 250 43.5C250 34.9396 256.94 28 265.5 28C274.06 28 281 34.9396 281 43.5Z" fill="#FBF6EF"/>
</g>
<g filter="url(#filter2_d_0_767)">
<circle cx="265.5" cy="43.5" r="9.5" fill="white" fill-opacity="0.68" shape-rendering="crispEdges"/>
</g>
<defs>
<filter id="filter0_b_0_767" x="-4" y="-4" width="274" height="94" filterUnits="userSpaceOnUse" color-interpolation-filters="sRGB">
<feFlood flood-opacity="0" result="BackgroundImageFix"/>
<feGaussianBlur in="BackgroundImageFix" stdDeviation="2"/>
<feComposite in2="SourceAlpha" operator="in" result="effect1_backgroundBlur_0_767"/>
<feBlend mode="normal" in="SourceGraphic" in2="effect1_backgroundBlur_0_767" result="shape"/>
</filter>
<filter id="filter1_b_0_767" x="246" y="24" width="39" height="39" filterUnits="userSpaceOnUse" color-interpolation-filters="sRGB">
<feFlood flood-opacity="0" result="BackgroundImageFix"/>
<feGaussianBlur in="BackgroundImageFix" stdDeviation="2"/>
<feComposite in2="SourceAlpha" operator="in" result="effect1_backgroundBlur_0_767"/>
<feBlend mode="normal" in="SourceGraphic" in2="effect1_backgroundBlur_0_767" result="shape"/>
</filter>
<filter id="filter2_d_0_767" x="252" y="34" width="27" height="27" filterUnits="userSpaceOnUse" color-interpolation-filters="sRGB">
<feFlood flood-opacity="0" result="BackgroundImageFix"/>
<feColorMatrix in="SourceAlpha" type="matrix" values="0 0 0 0 0 0 0 0 0 0 0 0 0 0 0 0 0 0 127 0" result="hardAlpha"/>
<feOffset dy="4"/>
<feGaussianBlur stdDeviation="2"/>
<feComposite in2="hardAlpha" operator="out"/>
<feColorMatrix type="matrix" values="0 0 0 0 0 0 0 0 0 0 0 0 0 0 0 0 0 0 0.25 0"/>
<feBlend mode="normal" in2="BackgroundImageFix" result="effect1_dropShadow_0_767"/>
<feBlend mode="normal" in="SourceGraphic" in2="effect1_dropShadow_0_767" result="shape"/>
</filter>
</defs>
</svg>
