<svg width="45" height="32" viewBox="0 0 45 32" fill="none" xmlns="http://www.w3.org/2000/svg">
<path d="M41.0592 25.5571L43.3997 28.1059L25.822 28.1059L25.822 28.8941L43.3997 28.8941L41.0592 31.4429L41.5707 32L44.7846 28.5L41.5707 25L41.0592 25.5571Z" fill="white"/>
<path d="M4.68835 25.5571L2.3479 28.1059L19.9255 28.1059L19.9255 28.8941L2.3479 28.8941L4.68835 31.4429L4.17683 32L0.962933 28.5L4.17683 25L4.68835 25.5571Z" fill="white"/>
<path d="M11.4333 21.331C10.3851 21.331 9.51631 21.1103 8.82676 20.669C8.13721 20.2139 7.59936 19.6209 7.21321 18.89C6.82706 18.1453 6.55124 17.3316 6.38575 16.449C6.23405 15.5663 6.1582 14.6906 6.1582 13.8218C6.1582 12.953 6.25474 12.0703 6.44781 11.1739C6.65467 10.2775 6.97187 9.45694 7.39939 8.71223C7.82691 7.95372 8.37855 7.34692 9.05431 6.89181C9.73007 6.42292 10.5506 6.18847 11.516 6.18847C12.5227 6.18847 13.3571 6.41603 14.0191 6.87113C14.6948 7.32623 15.2258 7.92614 15.6119 8.67085C16.0119 9.40178 16.2946 10.2085 16.4601 11.0912C16.6256 11.9738 16.7083 12.8495 16.7083 13.7184C16.7083 14.5734 16.6118 15.4491 16.4187 16.3455C16.2256 17.242 15.9222 18.0694 15.5085 18.8279C15.0948 19.5726 14.55 20.1794 13.8743 20.6483C13.2123 21.1034 12.3986 21.331 11.4333 21.331ZM11.5574 20.5242C12.1504 20.5242 12.64 20.338 13.0261 19.9657C13.4123 19.5933 13.7157 19.0968 13.9363 18.4762C14.1708 17.8557 14.3363 17.173 14.4328 16.4283C14.5293 15.6698 14.5776 14.9113 14.5776 14.1528C14.5776 13.3115 14.5293 12.4703 14.4328 11.629C14.3363 10.7878 14.1708 10.0155 13.9363 9.31213C13.7019 8.60879 13.3847 8.04336 12.9847 7.61584C12.5848 7.18832 12.0814 6.97456 11.4746 6.97456C10.8816 6.97456 10.3782 7.16074 9.96451 7.5331C9.56457 7.90545 9.24049 8.40193 8.99225 9.02252C8.74401 9.64312 8.56473 10.3327 8.4544 11.0912C8.34407 11.8497 8.28891 12.6151 8.28891 13.3874C8.28891 13.9666 8.31649 14.5803 8.37165 15.2285C8.42682 15.8766 8.52335 16.5179 8.66126 17.1523C8.81297 17.7729 9.01293 18.3383 9.26117 18.8486C9.50941 19.3589 9.81971 19.7657 10.1921 20.0691C10.5644 20.3725 11.0195 20.5242 11.5574 20.5242ZM19.3788 21V20.3173C19.8615 20.2898 20.2269 20.1794 20.4752 19.9864C20.7372 19.7933 20.9165 19.5244 21.013 19.1796C21.1234 18.8348 21.1785 18.428 21.1785 17.9591L21.1165 8.19506L18.6341 9.78792L18.2204 9.18801L22.2542 6.18847H22.9576L22.9783 18.7452C22.9783 19.0072 22.9714 19.2623 22.9576 19.5106C22.9576 19.7588 22.9438 19.9795 22.9162 20.1725C23.2058 20.1587 23.4954 20.145 23.785 20.1312C24.0746 20.1174 24.3642 20.1036 24.6539 20.0898V21H19.3788Z" fill="white"/>
<path d="M31.0394 21V20.6587C31.2808 20.6449 31.4635 20.5897 31.5876 20.4932C31.7186 20.3966 31.8083 20.2622 31.8566 20.0898C31.9117 19.9174 31.9393 19.714 31.9393 19.4795L31.9083 14.5975L30.6671 15.394L30.4602 15.094L32.4771 13.5942H32.8288L32.8392 19.8726C32.8392 20.0036 32.8357 20.1312 32.8288 20.2553C32.8288 20.3794 32.8219 20.4897 32.8081 20.5863C32.9529 20.5794 33.0977 20.5725 33.2425 20.5656C33.3874 20.5587 33.5322 20.5518 33.677 20.5449V21H31.0394ZM37.2584 21.1655C36.7343 21.1655 36.2999 21.0552 35.9551 20.8345C35.6104 20.607 35.3414 20.3105 35.1484 19.945C34.9553 19.5726 34.8174 19.1658 34.7346 18.7245C34.6588 18.2832 34.6209 17.8453 34.6209 17.4109C34.6209 16.9765 34.6691 16.5352 34.7657 16.087C34.8691 15.6388 35.0277 15.2285 35.2415 14.8561C35.4552 14.4769 35.731 14.1735 36.0689 13.9459C36.4068 13.7115 36.8171 13.5942 37.2998 13.5942C37.8031 13.5942 38.2203 13.708 38.5513 13.9356C38.8892 14.1631 39.1547 14.4631 39.3477 14.8354C39.5477 15.2009 39.6891 15.6043 39.7718 16.0456C39.8545 16.4869 39.8959 16.9248 39.8959 17.3592C39.8959 17.7867 39.8477 18.2246 39.7511 18.6728C39.6546 19.121 39.5029 19.5347 39.296 19.914C39.0891 20.2863 38.8168 20.5897 38.4789 20.8242C38.1479 21.0517 37.7411 21.1655 37.2584 21.1655ZM37.3205 20.7621C37.617 20.7621 37.8617 20.669 38.0548 20.4828C38.2479 20.2967 38.3996 20.0484 38.5099 19.7381C38.6271 19.4278 38.7099 19.0865 38.7582 18.7141C38.8064 18.3349 38.8306 17.9556 38.8306 17.5764C38.8306 17.1558 38.8064 16.7351 38.7582 16.3145C38.7099 15.8939 38.6271 15.5077 38.5099 15.1561C38.3927 14.8044 38.2341 14.5217 38.0341 14.3079C37.8342 14.0942 37.5825 13.9873 37.2791 13.9873C36.9826 13.9873 36.7309 14.0804 36.524 14.2665C36.3241 14.4527 36.162 14.701 36.0379 15.0113C35.9138 15.3216 35.8241 15.6663 35.769 16.0456C35.7138 16.4248 35.6862 16.8075 35.6862 17.1937C35.6862 17.4833 35.7 17.7901 35.7276 18.1142C35.7552 18.4383 35.8034 18.759 35.8724 19.0762C35.9482 19.3865 36.0482 19.6692 36.1724 19.9243C36.2965 20.1794 36.4516 20.3829 36.6378 20.5346C36.824 20.6863 37.0515 20.7621 37.3205 20.7621Z" fill="#797979"/>
</svg>
