<svg width="230" height="86" viewBox="0 0 230 86" fill="none" xmlns="http://www.w3.org/2000/svg">
<g filter="url(#filter0_b_0_775)">
<rect width="215" height="86" rx="15" fill="#002B45" fill-opacity="0.9"/>
<path d="M33.7666 24.1504H37.3965C39.1016 24.1504 40.335 24.4053 41.0967 24.915C41.8584 25.4248 42.2393 26.2305 42.2393 27.332C42.2393 28.0938 42.0254 28.7236 41.5977 29.2217C41.1758 29.7139 40.5576 30.0332 39.7432 30.1797V30.2676C41.6943 30.6016 42.6699 31.627 42.6699 33.3438C42.6699 34.4922 42.2803 35.3887 41.501 36.0332C40.7275 36.6777 39.6436 37 38.249 37H33.7666V24.1504ZM35.2607 29.6523H37.7217C38.7764 29.6523 39.5352 29.4883 39.998 29.1602C40.4609 28.8262 40.6924 28.2666 40.6924 27.4814C40.6924 26.7607 40.4346 26.2422 39.9189 25.9258C39.4033 25.6035 38.583 25.4424 37.458 25.4424H35.2607V29.6523ZM35.2607 30.918V35.7256H37.9414C38.9785 35.7256 39.7578 35.5264 40.2793 35.1279C40.8066 34.7236 41.0703 34.0938 41.0703 33.2383C41.0703 32.4414 40.8008 31.8555 40.2617 31.4805C39.7285 31.1055 38.9141 30.918 37.8184 30.918H35.2607ZM46.6777 31.3486H49.3057C50.5303 31.3486 51.4355 31.5771 52.0215 32.0342C52.6133 32.4854 52.9092 33.1621 52.9092 34.0645C52.9092 35.0312 52.5957 35.7637 51.9688 36.2617C51.3477 36.7539 50.4307 37 49.2178 37H45.2188V27.3672H46.6777V31.3486ZM55.9854 37H54.5264V27.3672H55.9854V37ZM46.6777 32.6055V35.7783H49.1475C50.6943 35.7783 51.4678 35.2363 51.4678 34.1523C51.4678 33.6133 51.2891 33.2207 50.9316 32.9746C50.5742 32.7285 49.9648 32.6055 49.1035 32.6055H46.6777ZM67.4551 40.3311H66.04V37H59.3076V40.3311H57.9014V35.7432H58.6572C59.4424 34.6768 60.0576 33.4258 60.5029 31.9902C60.9482 30.5547 61.1797 29.0137 61.1973 27.3672H66.0752V35.7432H67.4551V40.3311ZM64.6689 35.7432V28.5186H62.5068C62.4307 29.8193 62.1787 31.1377 61.751 32.4736C61.3291 33.8037 60.8018 34.8936 60.1689 35.7432H64.6689ZM75.3125 37L75.0225 35.6289H74.9521C74.4717 36.2324 73.9912 36.6426 73.5107 36.8594C73.0361 37.0703 72.4414 37.1758 71.7266 37.1758C70.7715 37.1758 70.0215 36.9297 69.4766 36.4375C68.9375 35.9453 68.668 35.2451 68.668 34.3369C68.668 32.3916 70.2236 31.3721 73.335 31.2783L74.9697 31.2256V30.6279C74.9697 29.8721 74.8057 29.3154 74.4775 28.958C74.1553 28.5947 73.6367 28.4131 72.9219 28.4131C72.1191 28.4131 71.2109 28.6592 70.1973 29.1514L69.749 28.0352C70.2236 27.7773 70.7422 27.5752 71.3047 27.4287C71.873 27.2822 72.4414 27.209 73.0098 27.209C74.1582 27.209 75.0078 27.4639 75.5586 27.9736C76.1152 28.4834 76.3936 29.3008 76.3936 30.4258V37H75.3125ZM72.0166 35.9717C72.9248 35.9717 73.6367 35.7227 74.1523 35.2246C74.6738 34.7266 74.9346 34.0293 74.9346 33.1328V32.2627L73.4756 32.3242C72.3154 32.3652 71.4775 32.5469 70.9619 32.8691C70.4521 33.1855 70.1973 33.6807 70.1973 34.3545C70.1973 34.8818 70.3555 35.2832 70.6719 35.5586C70.9941 35.834 71.4424 35.9717 72.0166 35.9717ZM91.8096 32.1748C91.8096 33.751 91.4316 34.9785 90.6758 35.8574C89.9258 36.7363 88.8945 37.1758 87.582 37.1758C86.334 37.1758 85.3438 36.7861 84.6113 36.0068C83.8789 35.2217 83.4717 34.1055 83.3896 32.6582H80.8672V37H79.4082V27.3672H80.8672V31.4014H83.4072C83.5244 30.0654 83.9521 29.0312 84.6904 28.2988C85.4287 27.5605 86.4043 27.1914 87.6172 27.1914C88.9062 27.1914 89.9258 27.6396 90.6758 28.5361C91.4316 29.4268 91.8096 30.6396 91.8096 32.1748ZM84.9014 32.1748C84.9014 33.4111 85.1152 34.3516 85.543 34.9961C85.9707 35.6348 86.6562 35.9541 87.5996 35.9541C88.5254 35.9541 89.2051 35.6436 89.6387 35.0225C90.0781 34.3955 90.2979 33.4463 90.2979 32.1748C90.2979 30.9443 90.084 30.0127 89.6562 29.3799C89.2285 28.7471 88.543 28.4307 87.5996 28.4307C86.6562 28.4307 85.9707 28.7471 85.543 29.3799C85.1152 30.0127 84.9014 30.9443 84.9014 32.1748ZM101.548 35.7432H105.819V27.3848H107.278V35.7432H108.658V40.3135H107.182V37H94.3672V27.3848H95.8262V35.7432H100.089V27.3848H101.548V35.7432ZM111.893 27.3672V33.4756L111.831 35.0752L111.805 35.5762L117.017 27.3672H118.836V37H117.474V31.1113L117.5 29.9512L117.544 28.8086L112.341 37H110.521V27.3672H111.893ZM125.999 37.1758C124.575 37.1758 123.45 36.7422 122.624 35.875C121.804 35.0078 121.394 33.8037 121.394 32.2627C121.394 30.71 121.774 29.4766 122.536 28.5625C123.304 27.6484 124.332 27.1914 125.621 27.1914C126.828 27.1914 127.783 27.5898 128.486 28.3867C129.189 29.1777 129.541 30.2236 129.541 31.5244V32.4473H122.905C122.935 33.5781 123.219 34.4365 123.758 35.0225C124.303 35.6084 125.067 35.9014 126.052 35.9014C127.089 35.9014 128.114 35.6846 129.128 35.251V36.5518C128.612 36.7744 128.123 36.9326 127.66 37.0264C127.203 37.126 126.649 37.1758 125.999 37.1758ZM125.604 28.4131C124.83 28.4131 124.212 28.665 123.749 29.1689C123.292 29.6729 123.022 30.3701 122.94 31.2607H127.977C127.977 30.3408 127.771 29.6377 127.361 29.1514C126.951 28.6592 126.365 28.4131 125.604 28.4131ZM135.887 37.1758C134.492 37.1758 133.411 36.748 132.644 35.8926C131.882 35.0312 131.501 33.8154 131.501 32.2451C131.501 30.6338 131.888 29.3887 132.661 28.5098C133.44 27.6309 134.548 27.1914 135.983 27.1914C136.446 27.1914 136.909 27.2412 137.372 27.3408C137.835 27.4404 138.198 27.5576 138.462 27.6924L138.014 28.9316C137.691 28.8027 137.34 28.6973 136.959 28.6152C136.578 28.5273 136.241 28.4834 135.948 28.4834C133.991 28.4834 133.013 29.7314 133.013 32.2275C133.013 33.4111 133.25 34.3193 133.725 34.9521C134.205 35.585 134.914 35.9014 135.852 35.9014C136.654 35.9014 137.478 35.7285 138.321 35.3828V36.6748C137.677 37.0088 136.865 37.1758 135.887 37.1758ZM141.099 37H139.394L142.162 32.9307C141.418 32.7666 140.847 32.4502 140.448 31.9814C140.056 31.5068 139.859 30.9121 139.859 30.1973C139.859 29.3184 140.155 28.627 140.747 28.123C141.339 27.6191 142.165 27.3672 143.226 27.3672H147.515V37H146.056V33.1504H143.621L141.099 37ZM141.283 30.2148C141.283 31.3281 142.092 31.8848 143.709 31.8848H146.056V28.6328H143.41C141.992 28.6328 141.283 29.1602 141.283 30.2148ZM37.3965 62.1758C36.002 62.1758 34.9209 61.748 34.1533 60.8926C33.3916 60.0312 33.0107 58.8154 33.0107 57.2451C33.0107 55.6338 33.3975 54.3887 34.1709 53.5098C34.9502 52.6309 36.0576 52.1914 37.4932 52.1914C37.9561 52.1914 38.4189 52.2412 38.8818 52.3408C39.3447 52.4404 39.708 52.5576 39.9717 52.6924L39.5234 53.9316C39.2012 53.8027 38.8496 53.6973 38.4688 53.6152C38.0879 53.5273 37.751 53.4834 37.458 53.4834C35.501 53.4834 34.5225 54.7314 34.5225 57.2275C34.5225 58.4111 34.7598 59.3193 35.2344 59.9521C35.7148 60.585 36.4238 60.9014 37.3613 60.9014C38.1641 60.9014 38.9873 60.7285 39.8311 60.3828V61.6748C39.1865 62.0088 38.375 62.1758 37.3965 62.1758ZM50.4395 57.1748C50.4395 58.7451 50.0439 59.9727 49.2529 60.8574C48.4619 61.7363 47.3691 62.1758 45.9746 62.1758C45.1133 62.1758 44.3486 61.9736 43.6807 61.5693C43.0127 61.165 42.4971 60.585 42.1338 59.8291C41.7705 59.0732 41.5889 58.1885 41.5889 57.1748C41.5889 55.6045 41.9814 54.3828 42.7666 53.5098C43.5518 52.6309 44.6416 52.1914 46.0361 52.1914C47.3838 52.1914 48.4531 52.6396 49.2441 53.5361C50.041 54.4326 50.4395 55.6455 50.4395 57.1748ZM43.1006 57.1748C43.1006 58.4053 43.3467 59.3428 43.8389 59.9873C44.3311 60.6318 45.0547 60.9541 46.0098 60.9541C46.9648 60.9541 47.6885 60.6348 48.1807 59.9961C48.6787 59.3516 48.9277 58.4111 48.9277 57.1748C48.9277 55.9502 48.6787 55.0215 48.1807 54.3887C47.6885 53.75 46.959 53.4307 45.9922 53.4307C45.0371 53.4307 44.3164 53.7441 43.8301 54.3711C43.3438 54.998 43.1006 55.9326 43.1006 57.1748ZM57.4883 62.1758C56.8613 62.1758 56.2871 62.0615 55.7656 61.833C55.25 61.5986 54.8164 61.2412 54.4648 60.7607H54.3594C54.4297 61.3232 54.4648 61.8564 54.4648 62.3604V66.3242H53.0059V52.3672H54.1924L54.3945 53.6855H54.4648C54.8398 53.1582 55.2764 52.7773 55.7744 52.543C56.2725 52.3086 56.8438 52.1914 57.4883 52.1914C58.7656 52.1914 59.75 52.6279 60.4414 53.501C61.1387 54.374 61.4873 55.5986 61.4873 57.1748C61.4873 58.7568 61.1328 59.9873 60.4238 60.8662C59.7207 61.7393 58.7422 62.1758 57.4883 62.1758ZM57.2773 53.4307C56.293 53.4307 55.5811 53.7031 55.1416 54.248C54.7021 54.793 54.4766 55.6602 54.4648 56.8496V57.1748C54.4648 58.5283 54.6904 59.498 55.1416 60.084C55.5928 60.6641 56.3164 60.9541 57.3125 60.9541C58.1445 60.9541 58.7949 60.6172 59.2637 59.9434C59.7383 59.2695 59.9756 58.3408 59.9756 57.1572C59.9756 55.9561 59.7383 55.0361 59.2637 54.3975C58.7949 53.7529 58.1328 53.4307 57.2773 53.4307ZM70.54 53.6152H67.4111V62H65.9521V53.6152H62.8584V52.3672H70.54V53.6152ZM78.3711 62L78.0811 60.6289H78.0107C77.5303 61.2324 77.0498 61.6426 76.5693 61.8594C76.0947 62.0703 75.5 62.1758 74.7852 62.1758C73.8301 62.1758 73.0801 61.9297 72.5352 61.4375C71.9961 60.9453 71.7266 60.2451 71.7266 59.3369C71.7266 57.3916 73.2822 56.3721 76.3936 56.2783L78.0283 56.2256V55.6279C78.0283 54.8721 77.8643 54.3154 77.5361 53.958C77.2139 53.5947 76.6953 53.4131 75.9805 53.4131C75.1777 53.4131 74.2695 53.6592 73.2559 54.1514L72.8076 53.0352C73.2822 52.7773 73.8008 52.5752 74.3633 52.4287C74.9316 52.2822 75.5 52.209 76.0684 52.209C77.2168 52.209 78.0664 52.4639 78.6172 52.9736C79.1738 53.4834 79.4521 54.3008 79.4521 55.4258V62H78.3711ZM75.0752 60.9717C75.9834 60.9717 76.6953 60.7227 77.2109 60.2246C77.7324 59.7266 77.9932 59.0293 77.9932 58.1328V57.2627L76.5342 57.3242C75.374 57.3652 74.5361 57.5469 74.0205 57.8691C73.5107 58.1855 73.2559 58.6807 73.2559 59.3545C73.2559 59.8818 73.4141 60.2832 73.7305 60.5586C74.0527 60.834 74.501 60.9717 75.0752 60.9717ZM95.5098 65.3311H94.0947V62H87.3623V65.3311H85.9561V60.7432H86.7119C87.4971 59.6768 88.1123 58.4258 88.5576 56.9902C89.0029 55.5547 89.2344 54.0137 89.252 52.3672H94.1299V60.7432H95.5098V65.3311ZM92.7236 60.7432V53.5186H90.5615C90.4854 54.8193 90.2334 56.1377 89.8057 57.4736C89.3838 58.8037 88.8564 59.8936 88.2236 60.7432H92.7236ZM101.926 62.1758C101.299 62.1758 100.725 62.0615 100.203 61.833C99.6875 61.5986 99.2539 61.2412 98.9023 60.7607H98.7969C98.8672 61.3232 98.9023 61.8564 98.9023 62.3604V66.3242H97.4434V52.3672H98.6299L98.832 53.6855H98.9023C99.2773 53.1582 99.7139 52.7773 100.212 52.543C100.71 52.3086 101.281 52.1914 101.926 52.1914C103.203 52.1914 104.188 52.6279 104.879 53.501C105.576 54.374 105.925 55.5986 105.925 57.1748C105.925 58.7568 105.57 59.9873 104.861 60.8662C104.158 61.7393 103.18 62.1758 101.926 62.1758ZM101.715 53.4307C100.73 53.4307 100.019 53.7031 99.5791 54.248C99.1396 54.793 98.9141 55.6602 98.9023 56.8496V57.1748C98.9023 58.5283 99.1279 59.498 99.5791 60.084C100.03 60.6641 100.754 60.9541 101.75 60.9541C102.582 60.9541 103.232 60.6172 103.701 59.9434C104.176 59.2695 104.413 58.3408 104.413 57.1572C104.413 55.9561 104.176 55.0361 103.701 54.3975C103.232 53.7529 102.57 53.4307 101.715 53.4307ZM112.552 62.1758C111.128 62.1758 110.003 61.7422 109.177 60.875C108.356 60.0078 107.946 58.8037 107.946 57.2627C107.946 55.71 108.327 54.4766 109.089 53.5625C109.856 52.6484 110.885 52.1914 112.174 52.1914C113.381 52.1914 114.336 52.5898 115.039 53.3867C115.742 54.1777 116.094 55.2236 116.094 56.5244V57.4473H109.458C109.487 58.5781 109.771 59.4365 110.311 60.0225C110.855 60.6084 111.62 60.9014 112.604 60.9014C113.642 60.9014 114.667 60.6846 115.681 60.251V61.5518C115.165 61.7744 114.676 61.9326 114.213 62.0264C113.756 62.126 113.202 62.1758 112.552 62.1758ZM112.156 53.4131C111.383 53.4131 110.765 53.665 110.302 54.1689C109.845 54.6729 109.575 55.3701 109.493 56.2607H114.529C114.529 55.3408 114.324 54.6377 113.914 54.1514C113.504 53.6592 112.918 53.4131 112.156 53.4131ZM126.403 54.7842C126.403 55.4111 126.222 55.8887 125.858 56.2168C125.501 56.5391 124.997 56.7559 124.347 56.8672V56.9463C125.167 57.0576 125.765 57.2979 126.14 57.667C126.521 58.0361 126.711 58.5459 126.711 59.1963C126.711 60.0928 126.38 60.7842 125.718 61.2705C125.062 61.7568 124.101 62 122.835 62H118.59V52.3672H122.817C125.208 52.3672 126.403 53.1729 126.403 54.7842ZM125.252 59.0996C125.252 58.5781 125.053 58.2002 124.654 57.9658C124.262 57.7256 123.608 57.6055 122.694 57.6055H120.049V60.7783H122.729C124.411 60.7783 125.252 60.2188 125.252 59.0996ZM124.979 54.9248C124.979 54.4561 124.798 54.125 124.435 53.9316C124.077 53.7324 123.532 53.6328 122.8 53.6328H120.049V56.3486H122.519C123.421 56.3486 124.057 56.2373 124.426 56.0146C124.795 55.792 124.979 55.4287 124.979 54.9248ZM132.907 62.1758C131.483 62.1758 130.358 61.7422 129.532 60.875C128.712 60.0078 128.302 58.8037 128.302 57.2627C128.302 55.71 128.683 54.4766 129.444 53.5625C130.212 52.6484 131.24 52.1914 132.529 52.1914C133.736 52.1914 134.691 52.5898 135.395 53.3867C136.098 54.1777 136.449 55.2236 136.449 56.5244V57.4473H129.813C129.843 58.5781 130.127 59.4365 130.666 60.0225C131.211 60.6084 131.976 60.9014 132.96 60.9014C133.997 60.9014 135.022 60.6846 136.036 60.251V61.5518C135.521 61.7744 135.031 61.9326 134.568 62.0264C134.111 62.126 133.558 62.1758 132.907 62.1758ZM132.512 53.4131C131.738 53.4131 131.12 53.665 130.657 54.1689C130.2 54.6729 129.931 55.3701 129.849 56.2607H134.885C134.885 55.3408 134.68 54.6377 134.27 54.1514C133.859 53.6592 133.273 53.4131 132.512 53.4131ZM142.795 62.1758C141.4 62.1758 140.319 61.748 139.552 60.8926C138.79 60.0312 138.409 58.8154 138.409 57.2451C138.409 55.6338 138.796 54.3887 139.569 53.5098C140.349 52.6309 141.456 52.1914 142.892 52.1914C143.354 52.1914 143.817 52.2412 144.28 52.3408C144.743 52.4404 145.106 52.5576 145.37 52.6924L144.922 53.9316C144.6 53.8027 144.248 53.6973 143.867 53.6152C143.486 53.5273 143.149 53.4834 142.856 53.4834C140.899 53.4834 139.921 54.7314 139.921 57.2275C139.921 58.4111 140.158 59.3193 140.633 59.9521C141.113 60.585 141.822 60.9014 142.76 60.9014C143.562 60.9014 144.386 60.7285 145.229 60.3828V61.6748C144.585 62.0088 143.773 62.1758 142.795 62.1758ZM148.895 52.3672V58.4756L148.833 60.0752L148.807 60.5762L154.019 52.3672H155.838V62H154.476V56.1113L154.502 54.9512L154.546 53.8086L149.343 62H147.523V52.3672H148.895ZM160.391 52.3672V56.4014H165.787V52.3672H167.246V62H165.787V57.6582H160.391V62H158.932V52.3672H160.391ZM171.799 56.3486H174.427C175.651 56.3486 176.557 56.5771 177.143 57.0342C177.734 57.4854 178.03 58.1621 178.03 59.0645C178.03 60.0312 177.717 60.7637 177.09 61.2617C176.469 61.7539 175.552 62 174.339 62H170.34V52.3672H171.799V56.3486ZM181.106 62H179.647V52.3672H181.106V62ZM171.799 57.6055V60.7783H174.269C175.815 60.7783 176.589 60.2363 176.589 59.1523C176.589 58.6133 176.41 58.2207 176.053 57.9746C175.695 57.7285 175.086 57.6055 174.225 57.6055H171.799Z" fill="white"/>
</g>
<g filter="url(#filter1_b_0_775)">
<path d="M230 42.5C230 51.0604 223.06 58 214.5 58C205.94 58 199 51.0604 199 42.5C199 33.9396 205.94 27 214.5 27C223.06 27 230 33.9396 230 42.5Z" fill="#FBF6EF"/>
</g>
<g filter="url(#filter2_d_0_775)">
<circle cx="214.5" cy="42.5" r="9.5" fill="white" fill-opacity="0.68" shape-rendering="crispEdges"/>
</g>
<defs>
<filter id="filter0_b_0_775" x="-4" y="-4" width="223" height="94" filterUnits="userSpaceOnUse" color-interpolation-filters="sRGB">
<feFlood flood-opacity="0" result="BackgroundImageFix"/>
<feGaussianBlur in="BackgroundImageFix" stdDeviation="2"/>
<feComposite in2="SourceAlpha" operator="in" result="effect1_backgroundBlur_0_775"/>
<feBlend mode="normal" in="SourceGraphic" in2="effect1_backgroundBlur_0_775" result="shape"/>
</filter>
<filter id="filter1_b_0_775" x="195" y="23" width="39" height="39" filterUnits="userSpaceOnUse" color-interpolation-filters="sRGB">
<feFlood flood-opacity="0" result="BackgroundImageFix"/>
<feGaussianBlur in="BackgroundImageFix" stdDeviation="2"/>
<feComposite in2="SourceAlpha" operator="in" result="effect1_backgroundBlur_0_775"/>
<feBlend mode="normal" in="SourceGraphic" in2="effect1_backgroundBlur_0_775" result="shape"/>
</filter>
<filter id="filter2_d_0_775" x="201" y="33" width="27" height="27" filterUnits="userSpaceOnUse" color-interpolation-filters="sRGB">
<feFlood flood-opacity="0" result="BackgroundImageFix"/>
<feColorMatrix in="SourceAlpha" type="matrix" values="0 0 0 0 0 0 0 0 0 0 0 0 0 0 0 0 0 0 127 0" result="hardAlpha"/>
<feOffset dy="4"/>
<feGaussianBlur stdDeviation="2"/>
<feComposite in2="hardAlpha" operator="out"/>
<feColorMatrix type="matrix" values="0 0 0 0 0 0 0 0 0 0 0 0 0 0 0 0 0 0 0.25 0"/>
<feBlend mode="normal" in2="BackgroundImageFix" result="effect1_dropShadow_0_775"/>
<feBlend mode="normal" in="SourceGraphic" in2="effect1_dropShadow_0_775" result="shape"/>
</filter>
</defs>
</svg>
